<?xml version="1.0" encoding="UTF-8"?>
<svg id="Camada_2" data-name="Camada 2" xmlns="http://www.w3.org/2000/svg" viewBox="0 0 994.49 276.21">
  <g>
    <path d="m125.48,130.6c0,38.04-20.31,72.7-63.33,72.7C22.91,203.29,0,171.62,0,131.59S22.11,59.9,63.54,59.9c38.24,0,61.94,30.07,61.94,70.7Zm-113.92.4c0,32.07,17.72,62.34,51.19,62.34,36.05,0,51.18-29.48,51.18-62.54s-17.12-60.94-50.78-60.94c-35.85,0-51.58,29.68-51.58,61.14Z"/>
    <path d="m208.03,201.3V61.89h15.93c21.71,33.46,72.69,111.33,81.46,126.47h.2c-1.2-20.11-1-40.62-1-63.33v-63.14h10.95v139.41h-14.74c-20.71-32.26-72.5-113.32-82.45-128.65h-.19c1,18.32.79,38.64.79,63.93v64.73h-10.95Z"/>
    <path d="m441.56,201.3l-51.78-139.41h11.55l27.09,72.89c7.77,21.11,16.53,44.42,19.52,56.17h.4c2.99-10.35,12.55-34.86,20.32-55.37l28.08-73.69h11.35l-53.77,139.41h-12.75Z"/>
    <path d="m792.68,61.89v139.41h-10.75V61.89h10.75Z"/>
    <path d="m883.56,61.89h46.21c38.24,0,64.72,26.69,64.72,68.52s-25.89,70.9-64.92,70.9h-46.01V61.89Zm10.75,129.46h33.67c36.84,0,54.97-25.89,54.97-60.35,0-30.67-16.33-59.15-54.97-59.15h-33.67v119.5Z"/>
  </g>
  <path d="m672.05,191.79c-33.71,19.56-77.05,8.05-96.61-25.66-19.56-33.71-8.05-77.05,25.66-96.61,33.71-19.56,77.05-8.05,96.61,25.66,19.56,33.71,8.05,77.05-25.66,96.61Zm-65.51-112.91c-28.54,16.56-38.29,53.26-21.73,81.81,16.56,28.54,42.81,23.15,71.36,6.58s48.75-38.12,32.18-66.66c-16.56-28.55-53.26-38.3-81.81-21.73Z"/>
  <path d="m717.17,112c1.44,1.91-25.21,28.6-62.18,50.1-23.38,13.59-40.4,18.79-74.45,29.18-25.48,7.78-32.63,8.32-34.96,4.31-2.93-5.06,22.34-30.11,20.46-62.58,2.97,7.27,6,18.02,3.7,30.1-1.78,9.35-5.39,12.33-3.78,14.86,5.06,7.97,48.9-8.79,87.6-28.82,40.57-21,62.34-38.8,63.6-37.15Z"/>
  <path d="m554.79,197.62c25.25-3.46,44.38-1.64,57.34.73,8.02,1.47,15.05,3.29,25.54,2.96,16.02-.5,28.88-6.38,37.32-11.33-13.89,1.25-27.35,1.85-40.39,1.85h0c-19.78-1.04-27.47-5.43-38.81-5.73-1.92-.05-3.84-.01-5.89.17,0,0-2.55.23-5.32.79-3.99.8-15.16,4.55-29.8,10.57Z"/>
</svg>